# xmcd
#
# Track frame offsets:
# 150
# 18162
# 39514
# 62345
# 83499
# 107127
# 127685
# 143996
# 168213
# 191222
# 208958
# 234096
# 255855
#
# Disc length: 3804 seconds
#
#
# Revision: 1
# Processed by: cddbd v1.4PL0 Copyright (c) Steve Scherf et al.
# Submitted via: FreeRIP 2.35 
#
DISCID=9b0eda0d
DTITLE=J.Leino and The Blues Guys - From Now On...
DYEAR=2001
DGENRE=Blues
TTITLE0=Heap See
TTITLE1=It's Too Late
TTITLE2=Seems So Sad
TTITLE3=No More Homecoming
TTITLE4=That's What The Blues Is All About
TTITLE5=All Around The World
TTITLE6=Let Me Be The One
TTITLE7=Mr. Big D
TTITLE8=Do Me Right
TTITLE9=Now And Then
TTITLE10=Sensation, Communication Together
TTITLE11=No Need To Worry
TTITLE12=Sawdust (bonus)
EXTD=
EXTT0=
EXTT1=
EXTT2=
EXTT3=
EXTT4=
EXTT5=
EXTT6=
EXTT7=
EXTT8=
EXTT9=
EXTT10=
EXTT11=
EXTT12=
PLAYORDER=
